PathFileType  4	(X/Y/Z) C:\Users\15086\Documents\GitHub\mocap-processing\NordTesting\KristenNordTest\
DataRate	CameraRate	NumFrames	NumMarkers	Units	OrigDataRate	OrigDataStartFrame	OrigNumFrames
  200.0		  200.0		   5		     52		 mm	  200.0	      1802	   2882
Frame#	Time	C7			R_Shoulder			L_Shoulder			Sternum			R_humerus			R_elbow_med			R_elbow_lat			R_forearm			R_wrist_radius			R_wrist_ulna			L_humerus			L_elbow_med			L_elbow_lat			L_forearm			L_wrist_radius			L_wrist_ulna			r.ASIS			r.PSIS			r_IC			L.ASIS			L.PSIS			l_IC			r_thigh1			r_thigh2			r_thigh3			r_thigh4			r_thigh5			r_knee			r_mknee			r_shank_antsup			r_sh2			r_sh3			r_sh4			r_ankle			r_mankle			r_calc			r_5meta			r_toe			L_thigh1			L_thigh2			L_thigh3			L_thigh4			L_knee			L_mknee			L_shank_antsup			L_sh2			L_sh3			L_ankle			L_mankle			L_calc			L_5meta			L_toe			
		X1	Y1	Z1	X2	Y2	Z2	X3	Y3	Z3	X4	Y4	Z4	X5	Y5	Z5	X6	Y6	Z6	X7	Y7	Z7	X8	Y8	Z8	X9	Y9	Z9	X10	Y10	Z10	X11	Y11	Z11	X12	Y12	Z12	X13	Y13	Z13	X14	Y14	Z14	X15	Y15	Z15	X16	Y16	Z16	X17	Y17	Z17	X18	Y18	Z18	X19	Y19	Z19	X20	Y20	Z20	X21	Y21	Z21	X22	Y22	Z22	X23	Y23	Z23	X24	Y24	Z24	X25	Y25	Z25	X26	Y26	Z26	X27	Y27	Z27	X28	Y28	Z28	X29	Y29	Z29	X30	Y30	Z30	X31	Y31	Z31	X32	Y32	Z32	X33	Y33	Z33	X34	Y34	Z34	X35	Y35	Z35	X36	Y36	Z36	X37	Y37	Z37	X38	Y38	Z38	X39	Y39	Z39	X40	Y40	Z40	X41	Y41	Z41	X42	Y42	Z42	X43	Y43	Z43	X44	Y44	Z44	X45	Y45	Z45	X46	Y46	Z46	X47	Y47	Z47	X48	Y48	Z48	X49	Y49	Z49	X50	Y50	Z50	X51	Y51	Z51	X52	Y52	Z52	

1802	9.00500	1206.238	1159.631	-793.224	1328.362	1137.462	-825.300	1077.362	1150.840	-844.302	1206.666	1060.009	-891.947	1498.527	1125.847	-767.453	1628.336	1040.604	-741.131	1616.486	1107.786	-700.260	1628.131	1186.547	-804.152	1618.013	1220.321	-918.065	1653.971	1246.176	-896.472	876.775	1132.272	-799.827	768.435	1040.590	-798.333	764.339	1104.311	-753.073	797.327	1190.824	-871.037	838.268	1220.193	-956.177	783.979	1236.905	-954.194	1313.174	663.738	-636.933	1259.563	830.870	-545.403	1345.058	773.021	-643.241	1075.964	659.479	-630.163	1144.005	822.076	-542.718	1051.077	756.271	-640.490	1381.343	479.043	-492.230	1377.253	378.619	-435.654	1389.822	377.362	-381.400	1388.455	534.852	-400.861	1372.370	430.786	-344.945	1376.240	308.021	-352.563	1252.173	319.635	-337.541	1395.492	314.090	-224.236	1383.737	323.415	-104.115	1397.056	390.912	-227.564	1386.469	405.478	-113.442	1371.659	379.284	62.076	1295.062	351.218	53.125	1312.023	437.956	86.057	1395.951	291.206	142.437	1362.482	234.676	124.202	1007.395	472.104	-488.908	1010.371	351.641	-417.584	1006.869	537.112	-387.714	1013.925	417.316	-320.910	1000.555	327.000	-324.114	1124.657	305.342	-320.182	982.461	323.276	-210.761	998.165	412.603	-223.870	1010.655	417.886	-102.126	1018.528	394.728	84.556	1085.016	337.303	59.895	1072.011	436.895	90.728	1005.088	284.716	172.651	1039.694	226.485	146.770
1803	9.01000	1206.311	1159.454	-793.441	1328.410	1137.308	-825.515	1077.385	1150.697	-844.532	1206.653	1059.909	-892.175	1498.534	1125.698	-767.497	1628.322	1040.443	-741.077	1616.429	1107.638	-700.190	1628.154	1186.403	-804.086	1618.149	1220.158	-917.983	1654.041	1246.020	-896.347	876.834	1132.193	-799.942	768.515	1040.496	-798.415	764.385	1104.220	-753.183	797.344	1190.727	-871.176	838.121	1220.256	-957.001	783.849	1237.212	-954.762	1313.196	663.670	-637.054	1259.574	830.794	-545.573	1345.034	772.915	-643.389	1075.947	659.432	-630.310	1144.026	822.246	-542.683	1051.065	756.166	-640.609	1381.269	479.001	-492.300	1377.198	378.589	-435.722	1389.781	377.339	-381.447	1388.450	534.838	-400.965	1372.398	430.800	-345.035	1376.223	308.017	-352.546	1252.171	319.623	-337.578	1395.490	314.103	-224.230	1383.712	323.423	-104.092	1396.997	390.940	-227.531	1386.434	405.499	-113.442	1371.661	379.271	62.069	1295.099	351.211	53.169	1311.994	437.911	86.090	1396.005	291.220	142.409	1362.524	234.633	124.134	1007.407	472.103	-489.002	1010.392	351.609	-417.590	1006.844	537.081	-387.719	1013.923	417.310	-320.921	1000.544	326.965	-324.118	1124.678	305.305	-320.167	982.551	323.186	-210.797	998.189	412.590	-223.836	1009.336	418.035	-101.102	1018.619	394.680	84.526	1085.099	337.272	59.884	1072.114	436.890	90.714	1005.153	284.702	172.670	1039.773	226.496	146.767
1804	9.01500	1206.358	1159.310	-793.649	1328.456	1137.156	-825.674	1077.446	1150.601	-844.726	1206.676	1059.776	-892.405	1498.527	1125.529	-767.539	1628.298	1040.242	-741.031	1616.458	1107.400	-700.241	1628.207	1186.234	-804.004	1618.301	1220.025	-917.899	1654.138	1245.891	-896.245	876.876	1132.111	-800.088	768.557	1040.477	-798.568	764.414	1104.145	-753.291	797.369	1190.622	-871.322	838.070	1220.136	-957.202	783.874	1237.068	-954.878	1313.155	663.577	-637.130	1259.570	830.711	-545.729	1345.038	772.822	-643.540	1075.871	659.336	-630.364	1144.055	822.158	-542.832	1051.049	756.102	-640.741	1381.219	478.922	-492.337	1377.131	378.527	-435.796	1389.748	377.306	-381.515	1388.442	534.779	-401.061	1372.432	430.780	-345.119	1376.232	307.996	-352.555	1252.151	319.633	-337.548	1395.541	314.139	-224.229	1383.725	323.431	-104.117	1397.005	390.923	-227.570	1386.421	405.509	-113.439	1371.667	379.236	62.101	1295.123	351.188	53.167	1311.986	437.908	86.123	1396.059	291.217	142.380	1362.615	234.630	124.098	1007.462	472.034	-489.095	1010.397	351.588	-417.616	1006.841	537.047	-387.844	1013.928	417.316	-320.956	1000.501	327.040	-324.087	1124.690	305.287	-320.125	982.520	323.364	-210.725	998.224	412.621	-223.868	1009.376	418.017	-101.085	1018.695	394.679	84.556	1085.148	337.290	59.899	1072.334	436.949	90.754	1005.246	284.695	172.689	1039.933	226.514	146.772
1805	9.02000	1205.596	1159.153	-793.928	1328.504	1137.014	-825.854	1077.491	1150.473	-844.967	1206.690	1059.663	-892.632	1498.538	1125.376	-767.594	1628.293	1040.059	-740.994	1616.391	1107.225	-700.204	1628.239	1186.086	-803.929	1618.441	1219.877	-917.815	1654.227	1245.749	-896.142	876.958	1131.956	-800.226	768.194	1040.478	-798.987	764.493	1104.036	-753.400	797.392	1190.513	-871.416	838.071	1219.979	-957.329	782.713	1237.152	-955.185	1313.154	663.467	-637.253	1259.571	830.661	-545.866	1345.027	772.706	-643.705	1075.848	659.225	-630.481	1144.087	822.027	-542.985	1051.024	755.999	-640.899	1381.125	478.875	-492.402	1377.112	378.513	-435.839	1389.742	377.287	-381.619	1388.475	534.599	-400.978	1372.447	430.757	-345.192	1376.219	307.966	-352.564	1252.166	319.590	-337.595	1395.495	314.103	-224.227	1383.758	323.417	-104.111	1396.963	390.929	-227.608	1386.421	405.509	-113.486	1371.710	379.225	62.076	1295.142	351.139	53.165	1312.020	437.819	86.128	1396.141	291.167	142.365	1362.710	234.569	124.055	1007.435	471.987	-489.079	1010.398	351.536	-417.605	1006.845	537.010	-387.931	1013.931	417.323	-320.987	1000.535	326.982	-324.115	1124.682	305.273	-320.130	982.567	323.263	-210.710	998.278	412.581	-223.848	1009.397	418.004	-101.072	1018.725	394.681	84.565	1085.211	337.303	59.900	1072.253	436.861	90.711	1005.313	284.689	172.710	1039.967	226.513	146.786
1806	9.02500	1206.431	1159.056	-794.011	1328.530	1136.861	-826.043	1077.516	1150.357	-845.193	1206.677	1059.521	-892.862	1498.556	1125.213	-767.642	1628.258	1039.877	-740.957	1616.369	1107.051	-700.155	1628.269	1185.922	-803.869	1618.778	1219.739	-918.115	1654.364	1245.588	-896.042	877.005	1131.867	-800.336	768.213	1040.310	-799.070	764.570	1103.925	-753.510	797.458	1190.413	-871.559	838.068	1219.857	-957.468	782.735	1237.019	-955.319	1313.172	663.353	-637.350	1259.591	830.566	-546.032	1345.037	772.567	-643.859	1075.898	659.108	-630.663	1144.084	821.726	-543.349	1051.032	755.913	-641.071	1381.064	478.824	-492.472	1377.074	378.474	-435.898	1389.744	377.217	-381.687	1388.433	534.679	-401.316	1372.466	430.727	-345.254	1376.238	307.948	-352.572	1252.151	319.595	-337.585	1395.568	314.133	-224.210	1383.783	323.420	-104.102	1396.947	390.894	-227.630	1386.423	405.520	-113.470	1371.772	379.184	62.100	1295.160	351.107	53.179	1312.017	437.796	86.161	1396.226	291.140	142.329	1362.840	234.491	124.049	1007.470	471.922	-489.122	1010.402	351.526	-417.596	1006.815	536.978	-387.966	1013.950	417.329	-320.981	1000.523	326.964	-324.121	1124.681	305.296	-320.095	982.592	323.215	-210.714	998.327	412.550	-223.843	1009.450	418.502	-102.190	1018.784	394.716	84.606	1085.267	337.272	59.875	1072.412	436.907	90.745	1005.405	284.727	172.707	1040.045	226.527	146.777
